<?xml version="1.0" standalone="no"?>
<!DOCTYPE svg PUBLIC "-//W3C//DTD SVG 20010904//EN"
 "http://www.w3.org/TR/2001/REC-SVG-20010904/DTD/svg10.dtd">
<svg version="1.0" xmlns="http://www.w3.org/2000/svg"
 width="300.000000pt" height="168.000000pt" viewBox="0 0 300.000000 168.000000"
 preserveAspectRatio="xMidYMid meet">
<metadata>
Created by potrace 1.15, written by Peter Selinger 2001-2017
</metadata>
<g transform="translate(0.000000,168.000000) scale(0.100000,-0.100000)"
fill="#000000" stroke="none">
<path d="M2482 1598 c23 -8 26 -13 18 -27 -7 -15 -3 -21 26 -34 47 -23 128
-100 158 -151 54 -92 70 -216 41 -312 -17 -56 -18 -64 -6 -45 5 7 14 10 20 7
29 -18 -57 -145 -140 -208 -53 -40 -79 -48 -79 -24 0 11 -12 10 -62 -6 -122
-38 -268 -12 -371 66 l-33 25 1 -26 c0 -19 -9 -33 -34 -50 -39 -26 -61 -29
-61 -9 0 11 -11 10 -61 -5 -117 -37 -241 -20 -339 46 -29 19 -54 35 -56 35 -2
0 -4 -10 -4 -23 0 -17 -11 -30 -40 -46 -42 -23 -70 -21 -49 5 7 9 -7 5 -37 -9
-41 -18 -66 -22 -154 -21 -91 0 -112 3 -160 25 -30 14 -70 38 -87 53 l-33 28
0 -29 c0 -21 -9 -34 -36 -51 -35 -23 -72 -23 -58 0 5 8 2 9 -12 3 -133 -54
-274 -45 -387 27 -26 17 -68 53 -94 82 -25 28 -43 45 -39 39 4 -7 4 -18 0 -25
-5 -7 -15 -2 -31 18 l-25 29 16 -31 c24 -49 96 -121 160 -158 142 -84 323 -83
466 3 l45 27 33 -22 c48 -33 130 -62 198 -69 80 -9 165 8 253 51 72 36 75 36
100 20 146 -95 355 -96 493 -2 l33 22 36 -23 c19 -13 60 -32 91 -43 269 -94
551 72 599 352 22 135 -26 284 -124 382 -50 50 -160 117 -189 115 -7 0 -1 -5
14 -11z"/>
<path d="M605 1560 c-27 -4 -69 -15 -93 -25 -39 -16 -41 -19 -25 -31 10 -7 13
-14 7 -14 -21 0 -102 -80 -135 -132 -18 -29 -34 -55 -36 -58 -2 -2 -8 2 -13
10 -15 25 -32 -70 -28 -155 5 -97 38 -172 102 -239 53 -54 126 -95 126 -71 0
12 6 15 23 10 12 -3 0 6 -26 20 -63 34 -120 92 -154 157 -25 47 -28 63 -28
148 0 116 22 168 102 247 74 72 140 96 253 91 97 -5 185 -39 175 -68 -5 -12
-4 -13 6 -2 7 6 24 12 38 12 23 0 23 1 7 18 -24 28 -117 71 -167 77 -24 4 -53
8 -64 9 -11 2 -42 0 -70 -4z"/>
<path d="M1165 1560 c-27 -4 -70 -16 -94 -25 -36 -15 -40 -20 -26 -28 15 -8
14 -11 -11 -28 -16 -10 -39 -19 -52 -19 -22 0 -21 -1 12 -50 51 -74 71 -141
70 -235 0 -56 -7 -96 -22 -135 -13 -34 -16 -47 -7 -36 8 11 15 23 15 26 0 4 6
7 14 7 17 0 8 -30 -31 -95 -21 -36 -29 -43 -49 -39 -37 7 -29 -8 24 -42 56
-36 62 -37 62 -15 0 11 5 14 16 10 9 -3 28 -8 42 -11 19 -4 16 -1 -9 9 -20 8
-50 21 -66 30 l-31 16 41 80 c38 74 41 88 45 174 5 107 -12 182 -59 258 l-29
48 23 14 c92 61 261 61 353 2 22 -15 24 -20 12 -34 -11 -15 -10 -15 8 1 11 9
31 17 45 17 l24 1 -25 20 c-40 34 -115 68 -162 74 -24 4 -52 8 -63 9 -11 2
-42 0 -70 -4z"/>
<path d="M1721 1559 c-67 -9 -137 -39 -119 -51 16 -10 -26 -46 -60 -50 -23 -3
-23 -3 8 -45 78 -105 95 -253 45 -388 -7 -19 -7 -19 7 -1 26 33 32 0 9 -47
-30 -60 -43 -75 -71 -79 -23 -3 -21 -6 24 -36 55 -36 66 -39 66 -18 0 9 8 13
23 9 12 -2 3 4 -19 15 -23 11 -45 25 -48 31 -4 6 5 28 19 48 84 124 86 314 4
462 -17 29 -29 54 -27 56 2 1 23 13 48 26 39 20 59 24 145 24 90 0 106 -3 157
-28 34 -16 69 -27 85 -25 27 3 27 4 -21 35 -84 55 -174 75 -275 62z"/>
<path d="M2275 1559 c-28 -4 -68 -15 -89 -24 -29 -12 -35 -19 -27 -29 14 -17
-26 -46 -64 -46 l-26 0 30 -37 c77 -97 103 -249 63 -368 -18 -53 -18 -57 -3
-36 30 39 34 7 7 -47 -29 -58 -49 -76 -76 -69 -30 8 -14 -11 38 -44 50 -32 63
-35 60 -16 -2 7 6 11 22 9 18 -2 14 2 -16 17 -23 10 -44 23 -47 28 -4 6 9 39
28 74 60 115 69 240 26 364 -11 30 -29 68 -40 84 -12 16 -21 33 -21 39 0 5 26
21 59 36 69 31 179 36 252 11 65 -22 140 -83 177 -145 17 -30 32 -50 32 -45 0
6 -9 25 -20 43 -23 37 -18 61 8 40 9 -7 3 5 -13 26 -74 98 -231 157 -360 135z"/>
<path d="M940 1420 c0 -23 -51 -120 -64 -120 -4 0 -6 12 -2 28 4 23 3 22 -11
-8 -10 -21 -19 -70 -21 -122 -5 -100 10 -158 61 -234 l32 -49 3 30 c2 17 8 35
13 41 7 8 4 11 -8 10 -12 -1 -24 15 -40 54 -38 93 -28 230 23 308 15 23 16 23
30 5 14 -17 14 -16 4 5 -12 25 -5 46 13 35 7 -3 3 3 -7 15 -23 27 -26 27 -26
2z"/>
<path d="M1500 1419 c0 -11 -11 -37 -25 -57 -14 -20 -25 -42 -25 -49 0 -20
-20 -15 -21 5 -1 33 -27 -42 -34 -98 -10 -93 21 -203 79 -275 l23 -29 5 36 c2
20 1 35 -3 32 -11 -6 -57 107 -64 158 -8 55 7 135 37 195 12 24 24 43 26 43 3
0 11 -8 19 -17 13 -16 13 -16 3 5 -14 29 -6 39 17 21 12 -10 10 -4 -6 19 -26
37 -31 39 -31 11z"/>
<path d="M2036 1368 c-8 -13 -20 -35 -27 -50 -14 -31 -32 -27 -25 5 3 12 -2 6
-11 -13 -12 -25 -17 -62 -17 -130 -1 -82 3 -103 25 -150 14 -30 36 -66 47 -80
20 -23 21 -24 22 -5 0 11 8 32 17 45 15 23 15 24 0 12 -14 -12 -19 -10 -36 19
-49 80 -51 208 -7 305 22 48 28 55 41 44 13 -11 14 -10 9 4 -8 22 -21 20 -38
-6z"/>
<path d="M768 497 c12 -13 22 -27 22 -31 0 -4 -61 -98 -135 -207 l-135 -199
77 0 78 0 23 40 23 40 148 0 148 0 27 -40 26 -40 75 0 c41 0 75 2 75 5 0 3
-68 107 -151 230 l-150 225 -86 0 -86 0 21 -23z m154 -197 l47 -80 -99 0 -99
0 47 80 c26 44 49 80 52 80 3 0 26 -36 52 -80z"/>
<path d="M1906 478 c83 -89 83 -83 -4 -83 -134 0 -222 -64 -222 -162 0 -75 48
-137 127 -164 49 -17 217 -17 266 0 79 27 127 89 127 163 0 56 -21 95 -105
202 l-68 86 -81 0 -80 0 40 -42z m114 -173 c35 -18 50 -43 50 -83 0 -60 -91
-103 -172 -82 -137 37 -105 180 40 180 29 0 66 -7 82 -15z"/>
<path d="M2250 230 l0 -170 65 0 65 0 0 170 0 170 -65 0 -65 0 0 -170z"/>
<path d="M1210 261 c5 -120 7 -131 30 -156 53 -56 228 -73 315 -29 69 34 80
59 84 195 l3 119 -68 0 -69 0 -1 -93 c0 -115 -7 -141 -39 -155 -38 -17 -69
-15 -99 9 -25 20 -26 24 -26 130 l0 109 -67 0 -68 0 5 -129z"/>
</g>
</svg>
